<?xml version="1.0" standalone="no"?>
<!DOCTYPE svg PUBLIC "-//W3C//DTD SVG 20010904//EN"
 "http://www.w3.org/TR/2001/REC-SVG-20010904/DTD/svg10.dtd">
<svg version="1.0" xmlns="http://www.w3.org/2000/svg"
 width="1000.000000pt" height="631.000000pt" viewBox="0 0 1000.000000 631.000000"
 preserveAspectRatio="xMidYMid meet">

<g transform="translate(0.000000,631.000000) scale(0.100000,-0.100000)"
fill="#fff" stroke="none">
<path d="M2270 6295 c-298 -42 -533 -157 -762 -373 -226 -213 -403 -538 -479
-877 -37 -165 -42 -218 -42 -405 -1 -180 1 -203 26 -297 53 -204 95 -281 208
-386 68 -64 163 -126 174 -115 2 2 -6 37 -18 78 -28 101 -30 379 -5 516 91
479 328 817 641 911 58 17 231 23 246 8 9 -10 -81 -340 -199 -735 -28 -96 -56
-188 -60 -205 -71 -249 -154 -571 -184 -712 -15 -67 -43 -165 -63 -217 -20
-53 -34 -98 -31 -101 3 -3 87 15 186 40 99 25 198 45 218 45 38 0 200 17 241
26 12 2 28 14 34 26 6 12 67 184 134 382 228 671 433 1238 524 1448 87 200
171 390 218 491 l46 98 -39 40 c-117 122 -326 226 -566 283 -93 22 -140 28
-303 40 -27 2 -93 -2 -145 -9z"/>
<path d="M4661 5756 c-6 -7 -27 -60 -45 -117 -19 -57 -50 -156 -71 -219 -20
-63 -52 -171 -70 -240 -18 -69 -58 -210 -90 -315 -66 -224 -155 -567 -185
-715 -29 -145 -89 -253 -276 -501 -85 -113 -141 -164 -161 -147 -20 16 -16 62
16 193 48 196 101 333 268 693 l85 184 -32 33 c-50 52 -229 136 -288 135 -21
0 -54 -27 -76 -61 -25 -39 -122 -345 -167 -524 -22 -88 -51 -199 -66 -247
l-26 -88 -121 -119 c-155 -153 -180 -173 -208 -169 -40 5 -35 72 17 269 70
264 114 406 194 622 28 75 51 147 51 159 0 40 -47 86 -133 128 -78 38 -203 77
-214 67 -5 -5 -21 -65 -89 -327 -63 -244 -140 -599 -164 -755 -6 -38 -20 -112
-31 -162 -25 -110 -18 -144 38 -194 46 -40 141 -85 208 -99 40 -8 58 -8 83 3
39 16 145 107 192 164 19 23 46 50 59 59 l24 16 -6 -46 c-8 -57 6 -89 58 -134
49 -44 101 -68 170 -81 87 -16 130 -14 183 11 53 25 183 151 222 216 39 64 51
55 44 -31 l-7 -74 38 -42 c40 -44 161 -110 209 -114 28 -2 29 0 76 133 55 160
81 213 212 430 162 267 343 510 381 510 21 0 21 -8 2 -52 -44 -107 -111 -368
-161 -633 -9 -44 -22 -105 -30 -135 -18 -70 -18 -104 2 -146 20 -42 76 -82
167 -117 160 -63 278 -12 428 185 33 43 64 76 68 73 5 -2 11 -27 15 -55 15
-109 78 -201 165 -237 74 -31 251 10 357 82 28 19 54 35 58 35 5 0 24 -14 43
-30 19 -17 80 -54 136 -82 121 -61 164 -65 245 -24 104 52 205 175 332 399 39
71 94 158 122 194 57 74 68 119 45 175 -8 20 -27 44 -42 54 -25 17 -27 16 -56
-12 -17 -16 -51 -60 -76 -99 -97 -148 -210 -301 -267 -362 -47 -51 -64 -63
-85 -61 -21 2 -27 9 -29 35 -7 76 164 682 247 876 19 44 20 51 6 77 -8 16 -30
40 -47 53 -50 37 -195 91 -247 91 -40 1 -47 -2 -59 -28 l-14 -28 -42 40 c-50
48 -57 52 -182 97 -128 46 -180 47 -228 4 -100 -87 -253 -403 -336 -690 -20
-68 -44 -122 -86 -190 -112 -182 -224 -314 -262 -307 -31 6 -25 68 18 214 87
289 175 521 275 721 59 118 63 129 50 153 -25 49 -127 104 -268 145 -75 22
-101 15 -183 -47 -141 -107 -238 -217 -429 -491 -34 -48 -51 -66 -53 -54 -8
43 259 793 368 1032 10 22 37 87 60 145 23 58 64 149 91 203 l50 99 -19 31
c-25 44 -132 97 -272 134 -165 44 -166 45 -179 29z m1485 -1451 c36 -39 64
-115 64 -176 0 -66 -38 -246 -75 -354 -86 -251 -243 -407 -323 -322 -33 35
-47 131 -34 227 25 173 136 443 245 594 55 78 74 82 123 31z"/>
<path d="M7324 4867 c-22 -19 -28 -34 -31 -78 l-5 -54 132 -129 c109 -108 130
-133 124 -150 -16 -48 -16 -156 2 -208 15 -48 40 -75 253 -287 244 -241 305
-291 353 -291 80 0 118 -39 255 -260 156 -251 229 -427 253 -605 22 -172 -29
-301 -157 -392 -86 -61 -181 -99 -321 -129 -204 -44 -664 -45 -917 -3 -78 13
-657 126 -712 139 -24 5 -62 14 -85 19 -24 6 -81 19 -128 30 -47 11 -177 41
-290 66 -579 129 -824 206 -1255 390 -99 43 -189 81 -200 85 -152 60 -246 88
-310 94 -41 4 -82 17 -130 42 -38 21 -103 47 -143 60 l-73 23 -59 -43 c-75
-55 -128 -70 -232 -64 -95 6 -183 41 -256 103 -47 41 -88 48 -124 21 -13 -9
-48 -34 -78 -56 -48 -35 -62 -40 -110 -40 -120 0 -245 54 -338 146 -44 45 -62
70 -62 88 0 16 -7 29 -17 33 -21 8 -360 -14 -483 -32 -472 -68 -888 -241
-1237 -517 -110 -86 -313 -293 -417 -423 -112 -140 -268 -374 -329 -492 -103
-200 -166 -443 -174 -668 -9 -272 49 -458 182 -584 72 -68 141 -92 285 -98
482 -21 899 298 1205 922 123 252 291 686 350 905 20 74 52 172 71 218 19 45
34 87 34 93 0 43 -605 -192 -662 -257 -9 -11 -37 -76 -62 -144 -24 -69 -63
-177 -86 -240 -69 -193 -198 -415 -302 -519 -89 -90 -110 -103 -181 -108 -75
-6 -122 13 -138 55 -40 100 59 367 209 569 205 274 512 502 866 643 84 33 399
114 506 130 414 62 759 75 980 36 47 -8 128 -20 180 -26 222 -27 659 -113 840
-165 63 -19 246 -78 405 -133 160 -55 369 -127 465 -160 360 -123 589 -190
910 -263 118 -27 261 -60 318 -73 185 -44 420 -81 747 -117 148 -17 684 -17
795 -1 171 26 217 34 315 57 357 85 605 245 704 454 34 74 35 79 35 196 1 131
-1 139 -97 385 -79 203 -155 350 -309 595 -111 178 -118 193 -118 271 0 37 -5
84 -12 105 -24 81 -415 517 -518 577 -38 23 -57 27 -120 27 -41 0 -87 -4 -101
-8 -23 -8 -37 2 -148 110 -164 158 -196 174 -247 130z"/>
<path d="M9498 2924 c-21 -34 -127 -430 -193 -714 -14 -63 -35 -151 -45 -195
-29 -121 -128 -648 -141 -750 -6 -49 -18 -107 -25 -128 -35 -99 -281 -381
-388 -446 -74 -44 -157 -71 -219 -71 -65 0 -132 32 -153 72 -21 40 -29 126
-15 160 10 26 14 28 73 28 188 0 358 115 474 317 63 111 96 219 98 319 1 75
-2 87 -35 150 -42 82 -109 141 -196 175 -48 18 -83 23 -201 27 l-144 4 -48
-51 c-78 -83 -213 -384 -262 -581 -23 -95 -48 -225 -48 -251 0 -42 -31 -99
-120 -219 -96 -128 -121 -153 -152 -148 -33 4 -34 45 -3 229 33 195 70 348
140 571 30 98 55 183 55 191 0 17 -69 66 -130 94 -54 24 -190 56 -216 51 -10
-2 -20 -12 -22 -23 -7 -37 -20 -38 -59 -5 -71 63 -230 119 -337 120 -35 0 -46
-6 -86 -49 -64 -68 -141 -231 -216 -456 -79 -241 -88 -260 -186 -424 -155
-259 -212 -331 -260 -331 -70 0 -118 56 -164 191 -13 39 -24 72 -24 73 0 2 22
17 50 35 186 121 347 388 421 701 l20 85 -46 42 c-38 34 -67 49 -155 78 -121
39 -183 44 -220 18 -46 -31 -135 -115 -208 -197 -74 -82 -234 -310 -265 -378
-17 -37 -34 -54 -43 -45 -13 13 147 576 213 750 25 65 43 120 41 122 -1 2 -64
19 -138 39 -74 19 -166 44 -205 55 -38 11 -73 17 -77 13 -3 -4 -13 -41 -22
-82 -8 -41 -25 -118 -36 -170 -12 -52 -52 -248 -89 -435 -60 -300 -73 -349
-106 -415 -61 -122 -231 -392 -285 -454 -39 -44 -76 -49 -86 -11 -8 31 36 246
83 410 29 103 199 547 238 622 7 14 11 31 9 38 -6 14 -74 65 -119 88 -84 42
-247 79 -260 58 -22 -36 -156 -535 -210 -786 -22 -98 -50 -156 -167 -338 -133
-209 -165 -245 -203 -230 -15 5 -16 16 -10 77 12 125 73 485 115 681 22 105
56 263 75 353 19 89 46 211 60 270 14 59 39 170 55 247 16 78 38 165 49 195
11 30 27 74 35 97 18 50 13 69 -24 88 -44 23 -261 91 -463 147 l-188 51 -25
-25 c-17 -16 -44 -81 -83 -194 -32 -93 -101 -284 -153 -424 -53 -140 -112
-300 -133 -355 -125 -343 -204 -545 -222 -565 -11 -12 -13 -9 -13 22 0 80 41
323 136 803 36 182 72 368 79 415 8 47 21 117 29 155 9 39 16 103 16 142 0 89
-6 94 -136 123 -227 49 -532 66 -684 36 -218 -42 -406 -148 -566 -319 -190
-204 -294 -431 -295 -639 0 -140 28 -223 105 -306 43 -47 114 -88 128 -74 6 6
14 51 19 101 15 160 75 320 165 437 66 87 189 204 251 241 101 59 283 129 283
109 0 -2 -18 -42 -39 -88 -21 -45 -59 -128 -84 -183 -25 -55 -57 -126 -71
-157 -14 -32 -38 -84 -52 -115 -14 -31 -48 -111 -76 -177 -27 -67 -59 -141
-70 -165 -26 -57 -242 -605 -275 -696 -13 -38 -45 -135 -70 -215 -24 -80 -65
-191 -89 -246 -50 -115 -52 -131 -24 -166 22 -29 169 -103 222 -113 61 -12 78
9 148 173 35 81 73 176 85 212 78 226 617 1380 645 1380 14 0 13 -30 -9 -176
-11 -71 -31 -223 -45 -339 -26 -214 -40 -319 -56 -435 -5 -36 -16 -137 -25
-225 -9 -88 -20 -193 -25 -233 -27 -204 2 -259 172 -327 35 -13 78 -26 97 -27
39 -3 24 -32 141 270 95 247 302 735 428 1012 13 30 46 109 73 176 59 148 158
354 172 354 5 0 7 -15 4 -32 -50 -329 -101 -688 -122 -863 -39 -329 -45 -383
-45 -467 0 -42 -7 -112 -15 -155 -28 -146 -19 -166 102 -227 137 -69 245 -83
309 -40 88 59 223 218 254 299 12 31 21 31 68 0 55 -36 146 -66 223 -72 57 -5
74 -2 116 18 63 30 157 125 219 221 27 43 53 78 57 78 5 0 6 -37 2 -83 -7 -81
-6 -84 21 -116 36 -43 89 -76 163 -101 92 -31 96 -30 116 43 21 76 133 358
149 374 6 6 46 13 89 15 l78 3 43 -125 c52 -150 74 -195 118 -237 88 -85 248
-113 352 -63 66 32 137 107 216 228 36 55 70 101 76 101 6 1 16 -29 23 -65 18
-99 48 -168 91 -213 52 -54 102 -67 197 -52 78 11 242 77 277 110 28 26 38 26
62 -1 37 -42 243 -118 319 -118 66 0 200 110 258 211 25 43 52 51 63 17 4 -13
20 -43 37 -68 80 -119 136 -150 277 -150 54 0 121 7 154 15 126 33 269 128
404 269 45 47 87 86 94 86 11 0 8 -59 -8 -150 -9 -56 26 -97 122 -146 140 -70
214 -76 314 -24 84 44 205 204 312 415 34 66 81 151 105 190 31 50 43 80 43
108 0 73 -44 137 -95 137 -15 0 -30 -20 -60 -77 -132 -254 -308 -503 -355
-503 -38 0 -44 25 -30 118 48 331 128 629 331 1227 50 149 115 340 144 426 29
86 71 195 94 243 22 47 41 94 41 104 0 45 -83 95 -225 136 -94 27 -239 45
-247 30z m-2068 -1424 c102 -110 81 -429 -46 -696 -62 -131 -155 -208 -228
-190 -58 14 -71 185 -30 382 36 175 119 378 199 487 42 56 65 60 105 17z
m1240 -2 c32 -52 27 -140 -10 -204 -48 -85 -203 -204 -263 -204 -24 0 -22 10
19 97 70 153 192 343 219 343 9 0 24 -15 35 -32z m-2436 -143 c26 -143 -69
-315 -215 -389 -72 -37 -129 -47 -129 -23 0 14 116 212 158 267 74 101 158
200 167 197 6 -2 14 -25 19 -52z"/>
<path d="M5801 2812 c-27 -90 -27 -110 2 -116 121 -27 255 -61 316 -81 40 -14
82 -25 93 -25 28 0 65 41 79 89 11 38 11 43 -11 66 -49 53 -237 116 -383 130
l-74 7 -22 -70z"/>
<path d="M5077 2343 c-3 -5 -15 -54 -27 -110 -30 -133 -29 -135 121 -198 170
-71 210 -56 264 100 36 104 52 88 -170 162 -165 54 -181 58 -188 46z"/>
</g>
</svg>
