<?xml version="1.0" encoding="UTF-8"?>
<svg id="Layer_1" data-name="Layer 1" xmlns="http://www.w3.org/2000/svg" viewBox="0 0 1000 1000">
  <defs>
    <style>
      .cls-1 {
        fill: #000000;
      }
    </style>
  </defs>
  <path class="cls-1" d="m341.75,212.22l88.5.76v-63.04h-87.96v-48h96l-47.27-64.57h-130.35v269.72l-70.17-101.6c30.86-14.83,51.27-38.83,51.73-80.37.42-23.59-4.59-46.74-26.39-62.17-14.09-13.43-37.33-23.48-82.11-25.58H22.63v193.94l80.4,106.23v-109.64h21.44l63.35,107.2h250.47v-64.11h-96.48l-.06-58.78Zm-239.94-42.8v-71.74c27.38-1.44,58.11-.89,59.94,34.31.17,37.51-30.71,39.11-59.94,37.43Z"/>
  <polygon class="cls-1" points="164.19 352.41 256.05 352.41 308.92 570.96 361.79 350.58 603.73 350.58 656.94 567.87 688.67 436.12 748.58 513.59 704.72 649.17 609.34 649.17 523.09 385.12 523.09 649.17 443.23 649.17 443.23 522.17 443.23 448.16 443.23 399.74 443.23 385.49 356.43 649.17 334.69 649.17 205.31 474.84 164.19 352.41"/>
  <polygon class="cls-1" points="456.39 665.38 634.19 665.38 634.19 729.7 537.22 729.82 537.22 775.99 626.88 777.36 626.88 841.04 537.7 841.04 537.7 897.33 634.19 897.33 634.19 962.62 570.11 962.62 456.39 814 456.39 665.38"/>
  <path class="cls-1" d="m898.11,807.7c0,34.57-6.51,63.3-19.53,86.21-13.02,22.91-31.36,40.09-55,51.54-23.65,11.46-51.44,17.18-83.38,17.18h-97.26v-297.25h104.05c32.35,0,59.76,5.49,82.25,16.47,22.48,10.98,39.58,27.04,51.3,48.19,11.72,21.14,17.58,47.04,17.58,77.67Zm-84.3,3.1c0-18.06-2.44-33.03-7.3-44.91-4.87-11.88-12.17-20.77-21.9-26.68-9.73-5.91-22-8.86-36.81-8.86h-23.65v166.81h18.1c24.67,0,42.77-7.09,54.28-21.28,11.51-14.19,17.27-35.88,17.27-65.07Z"/>
  <ellipse class="cls-1" cx="934.24" cy="923.34" rx="43.13" ry="39.29"/>
</svg>